<?xml version="1.0" encoding="utf-8"?>
<!-- Generator: Adobe Illustrator 24.0.1, SVG Export Plug-In . SVG Version: 6.00 Build 0)  -->
<svg version="1.1" id="Layer_1" xmlns="http://www.w3.org/2000/svg" xmlns:xlink="http://www.w3.org/1999/xlink" x="0px" y="0px"
	 viewBox="0 0 320 512" style="enable-background:new 0 0 320 512;" xml:space="preserve">
<style type="text/css">
	.st0{fill:#DCBB55;}
</style>
<path class="st0" d="M112,48c0-26.5,21.5-48,48-48s48,21.5,48,48s-21.5,48-48,48S112,74.5,112,48z M152,352v128
	c0,17.7-14.3,32-32,32s-32-14.3-32-32V256.9l-28.6,47.6c-9.1,15.1-28.8,20-43.9,10.9s-20-28.8-10.9-43.9l58.3-97
	c17.4-28.9,48.6-46.6,82.3-46.6h29.7c33.7,0,64.9,17.7,82.3,46.6l58.3,97c9.1,15.1,4.2,34.8-10.9,43.9s-34.8,4.2-43.9-10.9
	L232,256.9V480c0,17.7-14.3,32-32,32s-32-14.3-32-32V352H152z"/>
</svg>
