<?xml version="1.0" encoding="utf-8"?>
<!-- Generator: Adobe Illustrator 24.0.1, SVG Export Plug-In . SVG Version: 6.00 Build 0)  -->
<svg version="1.1" id="Layer_1" xmlns="http://www.w3.org/2000/svg" xmlns:xlink="http://www.w3.org/1999/xlink" x="0px" y="0px"
	 viewBox="0 0 640 512" style="enable-background:new 0 0 640 512;" xml:space="preserve">
<style type="text/css">
	.st0{fill:#DCBB55;}
</style>
<path class="st0" d="M0,336c0,26.5,21.5,48,48,48h544c26.5,0,48-21.5,48-48V176c0-26.5-21.5-48-48-48h-64v80c0,8.8-7.2,16-16,16
	s-16-7.2-16-16v-80h-64v80c0,8.8-7.2,16-16,16s-16-7.2-16-16v-80h-64v80c0,8.8-7.2,16-16,16s-16-7.2-16-16v-80h-64v80
	c0,8.8-7.2,16-16,16s-16-7.2-16-16v-80h-64v80c0,8.8-7.2,16-16,16s-16-7.2-16-16v-80H48c-26.5,0-48,21.5-48,48L0,336z"/>
</svg>
